#!OML:ASF X:\für Bonn\!DataBase\2005_08_10_Bjorn_Final\c3d\bjorn.ASF
:FULLY-SPECIFIED
:DEGREES
92
root -18.5445 19.3311 -0.237796 1450.92 -84.2675 -12.6566
lowerback -5.22707 6.81272 -2.69396
upperback 6.32034 9.77234 -6.80372
thorax 10.5068 4.74556 -4.42441
lowerneck -0.807909 -10.7313 2.42649
upperneck 3.09507 -14.6037 5.24949
head 1.33424 -7.22671 1.00489
rclavicle -2.22639e-014 -2.8625e-014
rhumerus 38.8484 -15.6926 -68.194
rradius 63.9081
rwrist -16.6056
rhand -29.1092 19.3177
rfingers 7.12502
rthumb -2.45718 -10.6479
lclavicle -2.22639e-014 -2.8625e-014
lhumerus -24.5384 -8.13793 85.5708
lradius 30.3114
lwrist -7.09598
lhand -28.9507 -5.84614
lfingers 7.12502
lthumb -2.30407 24.1212
rfemur -5.93136 -2.85198 15.5603
rtibia 36.3681
rfoot -17.4872 13.0652
rtoes -15.1882
lfemur -14.0982 4.87001 -18.6425
ltibia 30.2375
lfoot -6.11551 -11.8264
ltoes -1.28183
93
root -18.6098 19.3275 -0.235427 1451.01 -84.0132 -12.7092
lowerback -5.26763 6.79839 -2.70765
upperback 6.29041 9.75815 -6.83555
thorax 10.5003 4.73914 -4.44999
lowerneck -0.618819 -10.784 2.47852
upperneck 3.08161 -14.6657 5.24624
head 1.2952 -7.2611 1.00713
rclavicle 9.85972e-014 6.36111e-015
rhumerus 39.1302 -15.8047 -67.0329
rradius 62.5768
rwrist -16.7507
rhand -28.2892 18.7214
rfingers 7.12502
rthumb -1.66519 -11.2518
lclavicle 9.85972e-014 6.36111e-015
lhumerus -24.8256 -8.62525 85.7098
lradius 30.795
lwrist -6.73055
lhand -28.7434 -5.83245
lfingers 7.12502
lthumb -2.10388 24.1369
rfemur -6.16186 -2.81124 15.6598
rtibia 35.6361
rfoot -17.9249 13.1089
rtoes -15.4583
lfemur -14.0265 4.92857 -18.5796
ltibia 30.3956
lfoot -6.37682 -12.0713
ltoes -1.48044
94
root -18.6726 19.3218 -0.233572 1451.11 -83.7666 -12.7704
lowerback -5.31299 6.79856 -2.70025
upperback 6.27982 9.76393 -6.87526
thorax 10.5258 4.74397 -4.49137
lowerneck -0.506619 -10.8538 2.52732
upperneck 3.08154 -14.7544 5.2396
head 1.27371 -7.30717 1.00345
rclavicle -3.81667e-014 2.54444e-014
rhumerus 39.3294 -15.8738 -65.8027
rradius 61.2833
rwrist -17.2668
rhand -27.1863 18.2237
rfingers 7.12502
rthumb -0.600009 -11.7552
lclavicle -3.81667e-014 2.54444e-014
lhumerus -25.0577 -9.0429 85.8242
lradius 31.1863
lwrist -6.59703
lhand -28.5328 -5.91987
lfingers 7.12502
lthumb -1.90045 24.0514
rfemur -6.37769 -2.71902 15.7665
rtibia 34.9588
rfoot -18.2679 13.1365
rtoes -15.6349
lfemur -13.9654 4.99677 -18.5114
ltibia 30.5652
lfoot -6.61668 -12.3287
ltoes -1.5878
95
root -18.7345 19.3146 -0.231708 1451.03 -83.5252 -12.6494
lowerback -5.38114 6.79499 -2.71489
upperback 6.28039 9.76947 -6.92106
thorax 10.5751 4.74658 -4.5248
lowerneck -0.433959 -10.9231 2.61034
upperneck 3.06636 -14.8433 5.21988
head 1.25022 -7.35296 0.989212
rclavicle -7.15625e-014 -3.18055e-015
rhumerus 39.4621 -15.819 -64.4773
rradius 59.9954
rwrist -17.7616
rhand -26.0539 17.6626
rfingers 7.12502
rthumb 0.493646 -12.3165
lclavicle -7.15625e-014 -3.18055e-015
lhumerus -25.2963 -9.31037 85.9047
lradius 31.5481
lwrist -6.5576
lhand -28.2209 -6.2663
lfingers 7.12502
lthumb -1.59924 23.7075
rfemur -6.60162 -2.65882 15.8335
rtibia 34.3622
rfoot -18.5196 13.3545
rtoes -15.6586
lfemur -13.8943 5.00445 -18.4702
ltibia 30.7098
lfoot -6.8642 -12.5009
ltoes -1.77462
96
root -18.7951 19.3135 -0.231079 1451.28 -83.2532 -12.8558
lowerback -5.47786 6.78034 -2.69808
upperback 6.3003 9.76005 -6.94073
thorax 10.6622 4.74298 -4.54554
lowerneck -0.451566 -10.9779 2.64078
upperneck 3.11577 -14.921 5.2218
head 1.26798 -7.38993 0.981444
rclavicle 2.06736e-014 -1.59028e-014
rhumerus 39.5655 -15.6857 -63.088
rradius 58.6675
rwrist -18.0743
rhand -24.9462 17.1784
rfingers 7.12502
rthumb 1.56349 -12.7956
lclavicle 2.06736e-014 -1.59028e-014
lhumerus -25.478 -9.417 85.9823
lradius 31.8072
lwrist -6.67629
lhand -27.8826 -6.68623
lfingers 7.12502
lthumb -1.27251 23.2897
rfemur -6.84908 -2.5852 15.9491
rtibia 33.8583
rfoot -18.7492 13.5716
rtoes -15.9081
lfemur -13.8206 5.06996 -18.3731
ltibia 30.8077
lfoot -7.03176 -12.7685
ltoes -1.75499
97
root -18.8544 19.3177 -0.229711 1451.17 -82.9899 -12.7005
lowerback -5.57202 6.77395 -2.68858
upperback 6.31753 9.76441 -7.00536
thorax 10.7544 4.74721 -4.60957
lowerneck -0.563671 -11.0261 2.72814
upperneck 3.22912 -15.0002 5.22483
head 1.31752 -7.42376 0.957781
rclavicle 7.23576e-014 -2.54444e-014
rhumerus 39.5541 -15.5293 -61.7036
rradius 57.4695
rwrist -18.4778
rhand -23.7645 16.6867
rfingers 7.12502
rthumb 2.7048 -13.2759
lclavicle 7.23576e-014 -2.54444e-014
lhumerus -25.5589 -9.5398 86.0141
lradius 31.8701
lwrist -6.90526
lhand -27.5342 -7.325
lfingers 7.12502
lthumb -0.936028 22.6527
rfemur -7.11492 -2.49091 16.0166
rtibia 33.437
rfoot -19.0107 13.7862
rtoes -16.2737
lfemur -13.7125 5.08466 -18.3267
ltibia 30.8476
lfoot -7.21058 -12.9823
ltoes -1.86722
98
root -18.9118 19.3196 -0.228932 1451.23 -82.7198 -12.7185
lowerback -5.64621 6.76963 -2.6613
upperback 6.32765 9.76732 -7.05887
thorax 10.8273 4.75226 -4.67379
lowerneck -0.747766 -11.0779 2.78335
upperneck 3.45232 -15.0925 5.19932
head 1.41451 -7.45997 0.921777
rclavicle 1.08139e-013 -9.54166e-015
rhumerus 39.5027 -15.3225 -60.294
rradius 56.2879
rwrist -18.7912
rhand -22.5557 16.1979
rfingers 7.12502
rthumb 3.87214 -13.7466
lclavicle 1.08139e-013 -9.54166e-015
lhumerus -25.639 -9.60672 86.0322
lradius 31.8254
lwrist -7.353
lhand -27.2359 -8.06979
lfingers 7.12502
lthumb -0.647962 21.909
rfemur -7.38202 -2.39881 16.0983
rtibia 33.0891
rfoot -19.1672 14.0872
rtoes -16.2128
lfemur -13.5774 5.08187 -18.2483
ltibia 30.8382
lfoot -7.32046 -13.1978
ltoes -1.75151
99
root -18.9681 19.3224 -0.228886 1451.12 -82.4574 -12.5884
lowerback -5.72423 6.75639 -2.66404
upperback 6.33985 9.76073 -7.10398
thorax 10.8969 4.74981 -4.71385
lowerneck -0.950101 -11.1243 2.81157
upperneck 3.71003 -15.1804 5.16923
head 1.52768 -7.49266 0.885806
rclavicle 9.06458e-014 -6.36111e-015
rhumerus 39.362 -15.0205 -58.8584
rradius 55.2485
rwrist -19.1554
rhand -21.1784 15.483
rfingers 7.12502
rthumb 5.20212 -14.4332
lclavicle 9.06458e-014 -6.36111e-015
lhumerus -25.72 -9.5548 86.0528
lradius 31.6833
lwrist -7.90222
lhand -26.9884 -8.71524
lfingers 7.12502
lthumb -0.408856 21.2641
rfemur -7.61938 -2.28079 16.159
rtibia 32.7702
rfoot -19.2618 14.3804
rtoes -16.1337
lfemur -13.4281 5.12791 -18.1919
ltibia 30.8141
lfoot -7.45714 -13.4166
ltoes -1.91805
100
root -19.0225 19.3239 -0.228667 1451.19 -82.1908 -12.5984
lowerback -5.82327 6.75662 -2.60799
upperback 6.33943 9.7708 -7.19103
thorax 10.986 4.76211 -4.82696
lowerneck -1.14077 -11.1735 2.9123
upperneck 3.94379 -15.2746 5.17325
head 1.62907 -7.52843 0.850714
rclavicle 7.07673e-014 -1.59028e-014
rhumerus 39.1854 -14.737 -57.4875
rradius 54.2181
rwrist -19.4698
rhand -19.6409 14.5896
rfingers 7.12502
rthumb 6.68652 -15.2848
lclavicle 7.07673e-014 -1.59028e-014
lhumerus -25.844 -9.72639 86.0412
lradius 31.6184
lwrist -8.23898
lhand -26.8441 -8.77468
lfingers 7.12502
lthumb -0.269545 21.2049
rfemur -7.88294 -2.18523 16.2274
rtibia 32.4742
rfoot -19.2488 14.7003
rtoes -15.6656
lfemur -13.3281 5.1569 -18.1142
ltibia 30.8011
lfoot -7.54532 -13.6585
ltoes -1.78639
101
root -19.0749 19.326 -0.229366 1451.23 -81.9147 -12.6059
lowerback -5.90116 6.74577 -2.5816
upperback 6.34947 9.76505 -7.23843
thorax 11.0591 4.76284 -4.88552
lowerneck -1.31018 -11.2263 2.98774
upperneck 4.15292 -15.3672 5.12841
head 1.71681 -7.56506 0.806859
rclavicle 4.13472e-014 1.59028e-014
rhumerus 38.9613 -14.3512 -56.04
rradius 53.2883
rwrist -19.8213
rhand -17.9629 13.4574
rfingers 7.12502
rthumb 8.30617 -16.3593
lclavicle 4.13472e-014 1.59028e-014
lhumerus -25.955 -9.76323 86.0604
lradius 31.4733
lwrist -8.6846
lhand -26.766 -8.91494
lfingers 7.12502
lthumb -0.194109 21.0647
rfemur -8.10353 -2.0545 16.2984
rtibia 32.1931
rfoot -19.1993 14.9333
rtoes -15.3252
lfemur -13.2192 5.15667 -18.0302
ltibia 30.8027
lfoot -7.62663 -13.8759
ltoes -1.62759
102
root -19.1253 19.3261 -0.22999 1451.08 -81.6206 -12.3986
lowerback -5.99759 6.73503 -2.56811
upperback 6.34201 9.76207 -7.30052
thorax 11.1245 4.76458 -4.95123
lowerneck -1.40769 -11.278 3.01959
upperneck 4.35104 -15.4578 5.15136
head 1.79872 -7.60179 0.793941
rclavicle 3.97569e-015 1.27222e-014
rhumerus 38.6537 -13.8882 -54.5375
rradius 52.3885
rwrist -20.1341
rhand -16.1372 12.349
rfingers 7.12502
rthumb 10.0678 -17.3901
lclavicle 3.97569e-015 1.27222e-014
lhumerus -26.126 -9.80914 86.0776
lradius 31.3607
lwrist -9.09352
lhand -26.6468 -9.05392
lfingers 7.12502
lthumb -0.0789716 20.9258
rfemur -8.30409 -1.96625 16.3363
rtibia 31.9463
rfoot -19.1333 15.1635
rtoes -15.143
lfemur -13.1563 5.19937 -17.9757
ltibia 30.822
lfoot -7.70398 -14.1644
ltoes -1.45395
103
root -19.1737 19.3258 -0.231791 1451 -81.3488 -12.276
lowerback -6.07622 6.73283 -2.55626
upperback 6.35218 9.76959 -7.35032
thorax 11.1975 4.77066 -5.00251
lowerneck -1.51901 -11.3302 3.05119
upperneck 4.51759 -15.5469 5.1627
head 1.87191 -7.63851 0.777753
rclavicle -6.52014e-014 3.18055e-015
rhumerus 38.3508 -13.4096 -53.0483
rradius 51.5587
rwrist -20.4947
rhand -14.0942 11.3992
rfingers 7.12502
rthumb 12.0383 -18.2346
lclavicle -6.52014e-014 3.18055e-015
lhumerus -26.2659 -9.87529 86.1005
lradius 31.2186
lwrist -9.4278
lhand -26.4604 -9.25247
lfingers 7.12502
lthumb 0.101079 20.7272
rfemur -8.42814 -1.8834 16.3769
rtibia 31.7192
rfoot -19.0926 15.3261
rtoes -15.139
lfemur -13.0834 5.20174 -17.9054
ltibia 30.8631
lfoot -7.76076 -14.3854
ltoes -1.21631
